<?xml version="1.0" encoding="utf-8"?>
<!-- Generator: Adobe Illustrator 27.8.1, SVG Export Plug-In . SVG Version: 6.00 Build 0)  -->
<svg version="1.1" id="Layer_1" xmlns="http://www.w3.org/2000/svg" xmlns:xlink="http://www.w3.org/1999/xlink" x="0px" y="0px"
	 viewBox="0 0 84.5 100" style="enable-background:new 0 0 84.5 100;" xml:space="preserve">
<style type="text/css">
	.st0{fill:#FFFFFF;}
</style>
<g id="XMLID_23_">
	<path id="XMLID_25_" class="st0" d="M66.1,52.8c-0.1-11.1,9.1-16.4,9.5-16.7c-5.2-7.6-13.2-8.6-16-8.7c-6.7-0.7-13.3,4-16.7,4
		c-3.5,0-8.8-4-14.5-3.8c-7.3,0.1-14.2,4.4-18,11c-7.8,13.5-2,33.2,5.5,44.1C19.6,88,23.9,94,29.6,93.7c5.6-0.2,7.7-3.6,14.4-3.6
		c6.7,0,8.6,3.6,14.4,3.4c6-0.1,9.7-5.3,13.3-10.7c4.3-6.1,6-12.1,6.1-12.4C77.7,70.4,66.2,66,66.1,52.8z"/>
	<path id="XMLID_24_" class="st0" d="M55.2,20.3c3-3.7,5-8.8,4.5-14c-4.3,0.2-9.8,3-12.9,6.7c-2.8,3.2-5.2,8.5-4.6,13.5
		C47,26.8,52,24,55.2,20.3z"/>
</g>
</svg>
