<?xml version="1.0" encoding="UTF-8"?>
<svg id="Layer_2" data-name="Layer 2" xmlns="http://www.w3.org/2000/svg" viewBox="0 0 50 7.88">
  <defs>
    <style>
      .cls-1 {
        fill: #ffc73d;
        stroke-width: 0px;
      }
    </style>
  </defs>
  <g id="Layer_1-2" data-name="Layer 1">
    <g>
      <polygon class="cls-1" points="4.14 0 5.42 2.59 8.29 3.01 6.22 5.03 6.7 7.88 4.14 6.54 1.58 7.88 2.07 5.03 0 3.01 2.86 2.59 4.14 0"/>
      <polygon class="cls-1" points="14.57 0 15.85 2.59 18.72 3.01 16.64 5.03 17.13 7.88 14.57 6.54 12.01 7.88 12.5 5.03 10.43 3.01 13.29 2.59 14.57 0"/>
      <polygon class="cls-1" points="25 0 26.28 2.59 29.14 3.01 27.07 5.03 27.56 7.88 25 6.54 22.44 7.88 22.93 5.03 20.86 3.01 23.72 2.59 25 0"/>
      <polygon class="cls-1" points="35.43 0 36.71 2.59 39.57 3.01 37.5 5.03 37.99 7.88 35.43 6.54 32.87 7.88 33.36 5.03 31.28 3.01 34.15 2.59 35.43 0"/>
      <polygon class="cls-1" points="45.86 0 47.14 2.59 50 3.01 47.93 5.03 48.42 7.88 45.86 6.54 43.3 7.88 43.78 5.03 41.71 3.01 44.58 2.59 45.86 0"/>
    </g>
  </g>
</svg>