<?xml version="1.0" encoding="UTF-8"?>
<svg id="Layer_2" data-name="Layer 2" xmlns="http://www.w3.org/2000/svg" viewBox="0 0 68.49 77.9">
  <defs>
    <style>
      .cls-1 {
        stroke: #ffc73d;
      }

      .cls-1, .cls-2 {
        fill: none;
        stroke-linecap: round;
        stroke-linejoin: round;
        stroke-width: 3px;
      }

      .cls-2 {
        stroke: #64c4ee;
      }
    </style>
  </defs>
  <g id="Layer_1-2" data-name="Layer 1">
    <g>
      <path class="cls-2" d="M44.75,76.4v-9.59l4.62.76c5.51.91,10.6-3.17,10.93-8.75l.43-5.88c.09-1.5,1.02-2.83,2.4-3.42l1.72-.73c1.81-.79,2.64-2.9,1.83-4.71l-4.44-9.84c-.78-1.74-1.32-3.58-1.47-5.48C59.54,13.49,46.77,1.5,31.19,1.5,14.8,1.5,1.5,14.79,1.5,31.19v.08c0,3.45.67,6.86,1.96,10.06l1.58,3.91.79,1.96c2.63,6.52,3.97,13.48,3.97,20.51v8.69"/>
      <path class="cls-1" d="M15.94,25.6c0-4.3,3.49-7.79,7.79-7.79,3.32,0,6.15,2.07,7.27,4.99,1.12-2.92,3.95-4.99,7.27-4.99,4.3,0,7.79,3.49,7.79,7.79,0,1.18-.26,2.3-.73,3.3h0c-1.53,3.71-8.34,9.92-14.32,15.9-5.98-5.98-12.79-12.19-14.32-15.9h0c-.47-1-.73-2.12-.73-3.3Z"/>
    </g>
  </g>
</svg>