<?xml version="1.0" encoding="UTF-8"?>
<svg id="Layer_2" data-name="Layer 2" xmlns="http://www.w3.org/2000/svg" viewBox="0 0 97.56 74.9">
  <defs>
    <style>
      .cls-1 {
        fill: none;
      }

      .cls-1, .cls-2, .cls-3 {
        stroke-width: 0px;
      }

      .cls-2 {
        fill: #64c4ee;
      }

      .cls-3 {
        fill: #ffc73d;
      }
    </style>
  </defs>
  <g id="Layer_1-2" data-name="Layer 1">
    <g>
      <rect class="cls-1" x="23.56" y="42.41" width="9.72" height="8.09"/>
      <rect class="cls-1" x="23.56" y="30.16" width="9.72" height="9.25"/>
      <rect class="cls-1" x="11.96" y="42.41" width="8.6" height="8.09"/>
      <rect class="cls-1" x="23.56" y="53.5" width="9.72" height="9.25"/>
      <rect class="cls-1" x="36.29" y="53.5" width="9.72" height="9.25"/>
      <path class="cls-1" d="M61.73,42.41v8.09h7.49c.34-.5.72-.96,1.12-1.42v-6.67h-8.6Z"/>
      <rect class="cls-1" x="36.29" y="42.41" width="9.72" height="8.09"/>
      <path class="cls-1" d="M80.51,20.48v-7.6c0-3.51-2.86-6.37-6.37-6.37h-4.57v6.45c0,.83-.67,1.5-1.5,1.5s-1.5-.67-1.5-1.5v-6.45h-22.88v6.45c0,.83-.67,1.5-1.5,1.5s-1.5-.67-1.5-1.5v-6.45h-22.88v6.45c0,.83-.67,1.5-1.5,1.5s-1.5-.67-1.5-1.5v-6.45h-5.43c-3.51,0-6.37,2.86-6.37,6.37v7.6h77.51Z"/>
      <path class="cls-1" d="M61.73,62.75h5.11c-.25-1.1-.39-2.24-.39-3.41,0-2.07.41-4.03,1.15-5.84h-5.86v9.25Z"/>
      <rect class="cls-1" x="11.96" y="30.16" width="8.6" height="9.25"/>
      <rect class="cls-1" x="36.29" y="30.16" width="9.72" height="9.25"/>
      <path class="cls-1" d="M67.84,65.75H10.46c-.83,0-1.5-.67-1.5-1.5V28.66c0-.83.67-1.5,1.5-1.5h61.38c.83,0,1.5.67,1.5,1.5v17.77c2.09-1.41,4.54-2.32,7.17-2.57v-20.38H3v42.05c0,3.51,2.86,6.37,6.37,6.37h63.49c-2.16-1.58-3.9-3.69-5.02-6.15Z"/>
      <rect class="cls-1" x="61.73" y="30.16" width="8.6" height="9.25"/>
      <rect class="cls-1" x="49.01" y="42.41" width="9.72" height="8.09"/>
      <rect class="cls-1" x="49.01" y="30.16" width="9.72" height="9.25"/>
      <rect class="cls-1" x="49.01" y="53.5" width="9.72" height="9.25"/>
      <rect class="cls-1" x="11.96" y="53.5" width="8.6" height="9.25"/>
      <path class="cls-3" d="M73.33,28.66c0-.83-.67-1.5-1.5-1.5H10.46c-.83,0-1.5.67-1.5,1.5v35.59c0,.83.67,1.5,1.5,1.5h57.39c-.43-.95-.78-1.96-1.01-3h-5.11v-9.25h5.86c.43-1.06.98-2.07,1.62-3h-7.49v-8.09h8.6v6.67c.88-1.01,1.89-1.91,3-2.66v-17.77ZM11.96,42.41h8.6v8.09h-8.6v-8.09ZM23.56,42.41h9.72v8.09h-9.72v-8.09ZM23.56,39.41v-9.25h9.72v9.25h-9.72ZM33.29,53.5v9.25h-9.72v-9.25h9.72ZM36.29,53.5h9.72v9.25h-9.72v-9.25ZM36.29,50.5v-8.09h9.72v8.09h-9.72ZM36.29,39.41v-9.25h9.72v9.25h-9.72ZM49.01,30.16h9.72v9.25h-9.72v-9.25ZM20.56,30.16v9.25h-8.6v-9.25h8.6ZM11.96,53.5h8.6v9.25h-8.6v-9.25ZM58.73,62.75h-9.72v-9.25h9.72v9.25ZM58.73,50.5h-9.72v-8.09h9.72v8.09ZM61.73,39.41v-9.25h8.6v9.25h-8.6Z"/>
      <path class="cls-2" d="M83.51,43.86V12.88c0-5.17-4.2-9.37-9.37-9.37h-4.57V1.5c0-.83-.67-1.5-1.5-1.5s-1.5.67-1.5,1.5v2.01h-22.88V1.5c0-.83-.67-1.5-1.5-1.5s-1.5.67-1.5,1.5v2.01h-22.88V1.5c0-.83-.67-1.5-1.5-1.5s-1.5.67-1.5,1.5v2.01h-5.43C4.2,3.51,0,7.71,0,12.88v52.65c0,5.17,4.2,9.37,9.37,9.37h64.77c1.21,0,2.36-.24,3.42-.66,1.41.42,2.9.66,4.45.66,8.58,0,15.56-6.98,15.56-15.56,0-8.07-6.18-14.72-14.06-15.48ZM82.01,71.9c-6.93,0-12.56-5.63-12.56-12.56s5.63-12.56,12.56-12.56,12.56,5.63,12.56,12.56-5.63,12.56-12.56,12.56ZM9.37,6.51h5.43v6.45c0,.83.67,1.5,1.5,1.5s1.5-.67,1.5-1.5v-6.45h22.88v6.45c0,.83.67,1.5,1.5,1.5s1.5-.67,1.5-1.5v-6.45h22.88v6.45c0,.83.67,1.5,1.5,1.5s1.5-.67,1.5-1.5v-6.45h4.57c3.51,0,6.37,2.86,6.37,6.37v7.6H3v-7.6c0-3.51,2.86-6.37,6.37-6.37ZM9.37,71.9c-3.51,0-6.37-2.86-6.37-6.37V23.48h77.51v20.38c-2.64.25-5.08,1.16-7.17,2.57-1.11.75-2.12,1.65-3,2.66-.4.45-.77.92-1.12,1.42-.65.93-1.19,1.94-1.62,3-.73,1.8-1.15,3.77-1.15,5.84,0,1.17.14,2.31.39,3.41.23,1.04.58,2.05,1.01,3,1.12,2.46,2.86,4.57,5.02,6.15H9.37Z"/>
      <path class="cls-3" d="M86.29,54.3l-6.89,6.89-2.42-2.42c-.59-.59-1.54-.59-2.12,0s-.59,1.54,0,2.12l3.48,3.48c.29.29.68.44,1.06.44s.77-.15,1.06-.44l7.95-7.95c.59-.59.59-1.54,0-2.12s-1.54-.59-2.12,0Z"/>
    </g>
  </g>
</svg>