<?xml version="1.0" encoding="UTF-8"?>
<svg id="Layer_2" data-name="Layer 2" xmlns="http://www.w3.org/2000/svg" viewBox="0 0 153.3 153.3">
  <defs>
    <style>
      .cls-1 {
        fill: #fdfdfd;
      }

      .cls-1, .cls-2 {
        stroke-width: 0px;
      }

      .cls-2 {
        fill: #0062ad;
      }
    </style>
  </defs>
  <g id="Layer_1-2" data-name="Layer 1">
    <g id="black_circle" data-name="black circle">
      <path class="cls-2" d="M130.85,22.45C116.37,7.97,97.12,0,76.65,0S36.93,7.97,22.45,22.45C7.97,36.93,0,56.18,0,76.65s7.97,39.72,22.45,54.2c14.48,14.48,33.73,22.45,54.2,22.45s39.72-7.97,54.2-22.45c14.48-14.48,22.45-33.73,22.45-54.2s-7.97-39.72-22.45-54.2Z"/>
      <g>
        <circle class="cls-1" cx="76.65" cy="53.84" r="17.89"/>
        <path class="cls-1" d="M76.65,77.99h0c-17.66,0-31.98,14.32-31.98,31.98h0c0,4.08,3.3,7.38,7.38,7.38h49.2c4.08,0,7.38-3.3,7.38-7.38h0c0-17.66-14.32-31.98-31.98-31.98Z"/>
      </g>
    </g>
  </g>
</svg>